<?xml version="1.0" encoding="UTF-8" standalone="no"?>
<!DOCTYPE svg PUBLIC "-//W3C//DTD SVG 1.1//EN" "http://www.w3.org/Graphics/SVG/1.1/DTD/svg11.dtd">
<svg width="100%" height="100%" viewBox="0 0 100 100" version="1.1" xmlns="http://www.w3.org/2000/svg" xmlns:xlink="http://www.w3.org/1999/xlink" xml:space="preserve" xmlns:serif="http://www.serif.com/" style="fill-rule:evenodd;clip-rule:evenodd;stroke-linecap:round;stroke-linejoin:round;stroke-miterlimit:1.5;">
    <g transform="matrix(0.322008,0,0,0.322008,-10.6097,-2.05976)">
        <g transform="matrix(1,0,0,1,-0.404733,21.4257)">
            <g transform="matrix(1,0,0,1,-4.415,0.293663)">
                <path d="M80.05,294.355L307.162,294.355L307.162,173.087L330.792,173.087L193.687,59.947" style="fill:rgb(237,181,116);stroke:rgb(237,181,116);stroke-width:1px;"/>
            </g>
            <g transform="matrix(-1,0,0,1,382.563,0.287391)">
                <path d="M79.587,294.355L307.162,294.355L307.162,173.087L330.792,173.087L193.687,59.947" style="fill:rgb(237,181,116);stroke:rgb(237,181,116);stroke-width:1px;"/>
            </g>
        </g>
        <g id="Layer2" transform="matrix(1,0,0,1,-2.57232,55.7589)">
            <g transform="matrix(1,0,0,1,2.93048,-31.5332)">
                <path d="M105.77,221.922C104.955,221.134 104.169,220.301 103.474,219.421C101.239,216.592 99.932,213.309 100.964,209.558C101.753,206.691 104.643,204.783 107.474,204.558C109.3,204.413 111.056,204.954 112.256,206.177C113.073,207.01 113.663,208.167 113.795,209.72C114.088,213.175 111.783,216.619 110.195,219.4C109.985,219.769 109.839,220.155 109.732,220.551C110.705,221.414 111.671,222.212 112.508,222.952C114.489,224.704 115.991,226.342 118.561,227.27C118.791,227.353 119.02,227.439 119.246,227.526C119.785,224.786 119.91,221.988 119.91,220.163C119.91,219.687 120.051,216.162 119.76,214.589C119.484,214.266 119.317,213.846 119.317,213.388C119.317,212.365 120.148,211.535 121.17,211.535C121.819,211.535 122.983,212.005 123.346,213.625C123.724,215.317 123.616,219.601 123.616,220.163C123.616,222.323 123.415,225.657 122.709,228.888C123.716,229.259 124.742,229.583 125.821,229.79C126.753,229.968 127.729,230.131 128.675,230.227C128.84,230.219 129.604,230.182 129.924,230.213C130.276,230.247 130.554,230.341 130.74,230.432C131.415,230.76 131.699,231.288 131.798,231.801C131.88,232.229 131.879,232.802 131.373,233.412C130.827,234.068 129.923,234.252 129.182,233.915C128.877,233.924 128.489,233.933 128.381,233.923C127.303,233.816 126.187,233.633 125.123,233.429C123.929,233.2 122.794,232.846 121.678,232.44C121.364,233.268 121.001,234.05 120.584,234.76C119.607,236.421 118.339,237.709 116.774,238.433C115.171,239.174 113.234,239.359 110.894,238.617C108.931,237.995 108.093,236.565 106.821,235.052C103.314,230.879 104.257,227.713 105.56,222.848C105.641,222.542 105.709,222.233 105.77,221.922ZM108.888,224.716C108.034,227.743 107.346,229.916 109.658,232.668C110.079,233.168 110.429,233.674 110.8,234.133C111.123,234.533 111.449,234.905 112.014,235.084C113.289,235.489 114.346,235.473 115.219,235.069C116.13,234.648 116.821,233.848 117.39,232.881C117.711,232.334 117.993,231.737 118.239,231.106C117.929,230.987 117.617,230.869 117.302,230.756C114.252,229.654 112.403,227.806 110.054,225.729C109.685,225.403 109.293,225.065 108.888,224.716ZM128.096,232.183C128.105,231.78 128.245,231.377 128.522,231.044C128.182,231.453 128.08,231.839 128.096,232.183ZM106.884,217.731C106.914,217.675 106.945,217.619 106.977,217.563C107.666,216.354 108.551,215.017 109.227,213.605C109.777,212.455 110.206,211.256 110.102,210.033C110.048,209.397 109.834,208.924 109.458,208.638C108.786,208.126 107.8,208.146 106.902,208.418C105.844,208.738 104.836,209.454 104.537,210.541C103.844,213.061 104.88,215.224 106.381,217.124C106.544,217.329 106.712,217.532 106.884,217.731ZM121.036,215.236L121.058,215.237L121.036,215.236Z" style="fill:white;"/>
            </g>
            <g transform="matrix(1,0,0,1,1.43508,-29.6123)">
                <path d="M279.193,248.274C276.545,247.833 274.023,248.021 271.879,249.773C266.937,253.812 268.199,261.728 273.991,264.075C278.639,265.959 283.612,262.125 284.293,257.444C285.794,254.206 280.131,248.002 279.193,248.274Z" style="fill:white;stroke:white;stroke-width:1.99px;"/>
            </g>
            <g transform="matrix(1,0,0,1,1.43508,-29.6123)">
                <path d="M173.054,189.231C173.294,188.202 174.983,192.65 175.238,196.886C175.583,198.983 175.406,202.416 177.22,203.89C179.305,205.585 182.666,205.068 184.717,203.693C188.386,201.234 190.102,196.871 190.503,192.618C191.814,178.722 178.676,164.753 164.294,169.856C161.593,170.814 159.068,172.534 156.982,174.483C151.853,179.273 148.992,185.969 147.713,192.737C146.802,197.555 146.007,202.315 145.749,207.221C145.543,211.125 145.556,215.047 145.547,218.955C145.539,222.117 145.793,225.237 146.096,228.381C147.453,242.47 151.462,261.663 167.484,266.146C169.575,266.73 171.859,266.674 174.019,266.598C187.923,266.112 194.067,249.013 193.414,236.757C193.057,230.064 193.897,226.114 189.113,221.012C188.268,220.11 185.041,219.155 183.845,219.463C175.896,221.51 176.413,228.639 175.732,233.019C175.5,234.512 174.895,237.865 174.575,239.342C173.745,243.18 170.943,245.228 166.256,242.776C165.512,242.387 164.874,241.838 164.322,241.207C161.178,237.618 160.305,232.383 159.932,227.785C159.157,218.247 159.815,208.424 161.831,199.071C162.748,194.814 169.981,185.626 173.054,189.231Z" style="fill:white;stroke:white;stroke-width:1.99px;"/>
            </g>
            <g transform="matrix(1,0,0,1,1.43508,-29.6123)">
                <path d="M230.551,264.125C227.637,263.509 225.634,263.308 222.973,261.99C199.718,250.465 201.074,217.598 207.079,196.409C210.349,184.872 221.492,169.664 235.163,170.086C247.516,169.707 253.972,181.478 257.11,191.156C258.993,196.964 259.884,199.672 260.332,204.832C262.226,225.555 260.182,234.261 258.666,241.493C254.297,254.276 240.35,264.453 230.551,264.125Z" style="fill:white;stroke:white;stroke-width:1.99px;"/>
            </g>
            <g transform="matrix(0.921016,0,0,1.16902,19.7926,-66.9282)">
                <path d="M240.445,202.39C234.805,196.285 227.3,197.918 223.121,204.462C218.422,211.819 215.889,225.931 222.873,232.726C229.928,239.59 239.562,236.831 243.665,228.329C247.648,220.075 246.674,208.393 239.757,201.692" style="fill:rgb(237,181,116);stroke:white;stroke-width:1.67px;"/>
            </g>
        </g>
    </g>
</svg>
